# xmcd
# 
# Track frame offsets:
#     150
#     25914
#     46124
#     66560
#     87913
#     110810
#     135610
#     154981
#     179223
#     200532
#     225166
#     252947
#     273439
# 
# Disc length: 3952
# 
# Revision: 0
# Processed by: cddbd v1.5.2PL0 Copyright (c) Steve Scherf et al.
# Submitted via: fre:ac v1.0.31
# 
DISCID=bb0f6e0d
DTITLE=聖飢魔II - 愛と虐殺の日々～歴代小教典 ソニー時代完全盤～ [Disc 1]
DYEAR=2013
DGENRE=Heavy Metal
TTITLE0=蝋人形の館
TTITLE1=JACK THE RIPPER
TTITLE2=アダムの林檎
TTITLE3=悪夢の叫び
TTITLE4=EL・DO・RA・DO
TTITLE5=BURNING BLOOD
TTITLE6=1999 SECRET OBJECT
TTITLE7=地獄への階段 (完結編)
TTITLE8=STAINLESS NIGHT
TTITLE9=SCHWARZ KASTELL
TTITLE10=WINNER!
TTITLE11=害獣達の墓場
TTITLE12=白い奇蹟
EXTD=
EXTT0=
EXTT1=
EXTT2=
EXTT3=
EXTT4=
EXTT5=
EXTT6=
EXTT7=
EXTT8=
EXTT9=
EXTT10=
EXTT11=
EXTT12=
PLAYORDER=
